<svg id="visual" viewBox="0 0 960 540" width="960" height="540" xmlns="http://www.w3.org/2000/svg" xmlns:xlink="http://www.w3.org/1999/xlink" version="1.1"><g stroke-width="1" stroke-linejoin="bevel"><path d="M517.3 278L396.7 322L515.3 374Z" fill="#2589b1" stroke="#2589b1"></path><path d="M517.3 278L401.7 275L396.7 322Z" fill="#2094bb" stroke="#2094bb"></path><path d="M396.7 322L442.7 434L515.3 374Z" fill="#2589b1" stroke="#2589b1"></path><path d="M401.7 275L351 299L396.7 322Z" fill="#2783ab" stroke="#2783ab"></path><path d="M396.7 322L293 356L442.7 434Z" fill="#15a4ca" stroke="#15a4ca"></path><path d="M442.7 434L527.3 444L515.3 374Z" fill="#2589b1" stroke="#2589b1"></path><path d="M669 336L613 236L517.3 278Z" fill="#2589b1" stroke="#2589b1"></path><path d="M517.3 278L501.3 180L401.7 275Z" fill="#2783ab" stroke="#2783ab"></path><path d="M401.7 275L319 152L351 299Z" fill="#2783ab" stroke="#2783ab"></path><path d="M501.3 180L410.7 178L401.7 275Z" fill="#199ec5" stroke="#199ec5"></path><path d="M669 336L517.3 278L515.3 374Z" fill="#238eb6" stroke="#238eb6"></path><path d="M517.3 278L613 236L501.3 180Z" fill="#2783ab" stroke="#2783ab"></path><path d="M248.3 308L293 356L351 299Z" fill="#297ea6" stroke="#297ea6"></path><path d="M351 299L293 356L396.7 322Z" fill="#199ec5" stroke="#199ec5"></path><path d="M527.3 444L628 426L515.3 374Z" fill="#199ec5" stroke="#199ec5"></path><path d="M628 426L669 336L515.3 374Z" fill="#1d99c0" stroke="#1d99c0"></path><path d="M760.7 251L618 180L613 236Z" fill="#15a4ca" stroke="#15a4ca"></path><path d="M613 236L618 180L501.3 180Z" fill="#00b4d8" stroke="#00b4d8"></path><path d="M501.3 180L423.7 118L410.7 178Z" fill="#10a9cf" stroke="#10a9cf"></path><path d="M568.3 100L423.7 118L501.3 180Z" fill="#2783ab" stroke="#2783ab"></path><path d="M226.3 204L248.3 308L351 299Z" fill="#10a9cf" stroke="#10a9cf"></path><path d="M293 356L283 439L442.7 434Z" fill="#2589b1" stroke="#2589b1"></path><path d="M442.7 434L401.7 540L527.3 444Z" fill="#199ec5" stroke="#199ec5"></path><path d="M319 152L401.7 275L410.7 178Z" fill="#238eb6" stroke="#238eb6"></path><path d="M293 356L234.3 385L283 439Z" fill="#238eb6" stroke="#238eb6"></path><path d="M335 540L401.7 540L442.7 434Z" fill="#15a4ca" stroke="#15a4ca"></path><path d="M527.3 444L561.3 540L628 426Z" fill="#2094bb" stroke="#2094bb"></path><path d="M329 106L319 152L410.7 178Z" fill="#1d99c0" stroke="#1d99c0"></path><path d="M401.7 540L561.3 540L527.3 444Z" fill="#297ea6" stroke="#297ea6"></path><path d="M248.3 308L234.3 385L293 356Z" fill="#297ea6" stroke="#297ea6"></path><path d="M618 180L568.3 100L501.3 180Z" fill="#297ea6" stroke="#297ea6"></path><path d="M283 439L335 540L442.7 434Z" fill="#238eb6" stroke="#238eb6"></path><path d="M239.3 540L335 540L283 439Z" fill="#297ea6" stroke="#297ea6"></path><path d="M352 0L329 106L423.7 118Z" fill="#297ea6" stroke="#297ea6"></path><path d="M423.7 118L329 106L410.7 178Z" fill="#1d99c0" stroke="#1d99c0"></path><path d="M319 152L226.3 204L351 299Z" fill="#1d99c0" stroke="#1d99c0"></path><path d="M233.3 55L226.3 204L319 152Z" fill="#08afd3" stroke="#08afd3"></path><path d="M248.3 308L137.7 364L234.3 385Z" fill="#00b4d8" stroke="#00b4d8"></path><path d="M743.7 152L620 90L618 180Z" fill="#199ec5" stroke="#199ec5"></path><path d="M618 180L620 90L568.3 100Z" fill="#1d99c0" stroke="#1d99c0"></path><path d="M522.3 0L447.7 0L423.7 118Z" fill="#199ec5" stroke="#199ec5"></path><path d="M135.7 439L197.3 459L234.3 385Z" fill="#199ec5" stroke="#199ec5"></path><path d="M234.3 385L197.3 459L283 439Z" fill="#00b4d8" stroke="#00b4d8"></path><path d="M777.7 423L766.7 326L669 336Z" fill="#1d99c0" stroke="#1d99c0"></path><path d="M669 336L760.7 251L613 236Z" fill="#1d99c0" stroke="#1d99c0"></path><path d="M777.7 423L669 336L628 426Z" fill="#1d99c0" stroke="#1d99c0"></path><path d="M561.3 540L677 540L628 426Z" fill="#08afd3" stroke="#08afd3"></path><path d="M766.7 326L760.7 251L669 336Z" fill="#1d99c0" stroke="#1d99c0"></path><path d="M197.3 459L239.3 540L283 439Z" fill="#15a4ca" stroke="#15a4ca"></path><path d="M522.3 0L423.7 118L568.3 100Z" fill="#00b4d8" stroke="#00b4d8"></path><path d="M677 540L777.7 423L628 426Z" fill="#2783ab" stroke="#2783ab"></path><path d="M887.3 283L814.3 171L760.7 251Z" fill="#15a4ca" stroke="#15a4ca"></path><path d="M760.7 251L743.7 152L618 180Z" fill="#2783ab" stroke="#2783ab"></path><path d="M628 0L522.3 0L568.3 100Z" fill="#297ea6" stroke="#297ea6"></path><path d="M120.7 199L143.7 257L226.3 204Z" fill="#2094bb" stroke="#2094bb"></path><path d="M226.3 204L143.7 257L248.3 308Z" fill="#10a9cf" stroke="#10a9cf"></path><path d="M233.3 55L319 152L329 106Z" fill="#15a4ca" stroke="#15a4ca"></path><path d="M628 0L568.3 100L620 90Z" fill="#199ec5" stroke="#199ec5"></path><path d="M143.7 257L137.7 364L248.3 308Z" fill="#2783ab" stroke="#2783ab"></path><path d="M197.3 459L105.7 540L239.3 540Z" fill="#00b4d8" stroke="#00b4d8"></path><path d="M447.7 0L352 0L423.7 118Z" fill="#297ea6" stroke="#297ea6"></path><path d="M137.7 364L135.7 439L234.3 385Z" fill="#10a9cf" stroke="#10a9cf"></path><path d="M352 0L233.3 55L329 106Z" fill="#2783ab" stroke="#2783ab"></path><path d="M677 540L757.7 540L777.7 423Z" fill="#08afd3" stroke="#08afd3"></path><path d="M726.7 63L628 0L620 90Z" fill="#00b4d8" stroke="#00b4d8"></path><path d="M233.3 55L120.7 199L226.3 204Z" fill="#2094bb" stroke="#2094bb"></path><path d="M143.7 257L0 322L137.7 364Z" fill="#1d99c0" stroke="#1d99c0"></path><path d="M0 482L105.7 540L135.7 439Z" fill="#2783ab" stroke="#2783ab"></path><path d="M743.7 152L726.7 63L620 90Z" fill="#15a4ca" stroke="#15a4ca"></path><path d="M760.7 251L814.3 171L743.7 152Z" fill="#199ec5" stroke="#199ec5"></path><path d="M743.7 152L863.3 119L726.7 63Z" fill="#1d99c0" stroke="#1d99c0"></path><path d="M887.3 283L760.7 251L766.7 326Z" fill="#2783ab" stroke="#2783ab"></path><path d="M826.3 540L857.3 435L777.7 423Z" fill="#08afd3" stroke="#08afd3"></path><path d="M777.7 423L881.3 375L766.7 326Z" fill="#199ec5" stroke="#199ec5"></path><path d="M857.3 435L881.3 375L777.7 423Z" fill="#297ea6" stroke="#297ea6"></path><path d="M757.7 540L826.3 540L777.7 423Z" fill="#15a4ca" stroke="#15a4ca"></path><path d="M857.3 435L960 394L881.3 375Z" fill="#00b4d8" stroke="#00b4d8"></path><path d="M0 322L135.7 439L137.7 364Z" fill="#2783ab" stroke="#2783ab"></path><path d="M135.7 439L105.7 540L197.3 459Z" fill="#1d99c0" stroke="#1d99c0"></path><path d="M352 0L197.3 0L233.3 55Z" fill="#199ec5" stroke="#199ec5"></path><path d="M233.3 55L74.7 95L120.7 199Z" fill="#1d99c0" stroke="#1d99c0"></path><path d="M881.3 375L887.3 283L766.7 326Z" fill="#08afd3" stroke="#08afd3"></path><path d="M863.3 119L743.7 152L814.3 171Z" fill="#297ea6" stroke="#297ea6"></path><path d="M813.3 0L762.7 0L726.7 63Z" fill="#00b4d8" stroke="#00b4d8"></path><path d="M726.7 63L762.7 0L628 0Z" fill="#10a9cf" stroke="#10a9cf"></path><path d="M960 243L863.3 119L814.3 171Z" fill="#1d99c0" stroke="#1d99c0"></path><path d="M141.7 0L74.7 95L233.3 55Z" fill="#297ea6" stroke="#297ea6"></path><path d="M0 275L0 322L143.7 257Z" fill="#2783ab" stroke="#2783ab"></path><path d="M197.3 0L141.7 0L233.3 55Z" fill="#238eb6" stroke="#238eb6"></path><path d="M0 275L143.7 257L120.7 199Z" fill="#199ec5" stroke="#199ec5"></path><path d="M0 208L0 275L120.7 199Z" fill="#1d99c0" stroke="#1d99c0"></path><path d="M863.3 119L813.3 0L726.7 63Z" fill="#238eb6" stroke="#238eb6"></path><path d="M74.7 95L0 208L120.7 199Z" fill="#15a4ca" stroke="#15a4ca"></path><path d="M0 322L0 482L135.7 439Z" fill="#199ec5" stroke="#199ec5"></path><path d="M881.3 375L960 394L887.3 283Z" fill="#2783ab" stroke="#2783ab"></path><path d="M887.3 283L960 243L814.3 171Z" fill="#2094bb" stroke="#2094bb"></path><path d="M960 450L960 394L857.3 435Z" fill="#199ec5" stroke="#199ec5"></path><path d="M960 394L960 243L887.3 283Z" fill="#00b4d8" stroke="#00b4d8"></path><path d="M863.3 119L960 0L813.3 0Z" fill="#2783ab" stroke="#2783ab"></path><path d="M960 540L960 450L857.3 435Z" fill="#199ec5" stroke="#199ec5"></path><path d="M0 482L0 540L105.7 540Z" fill="#10a9cf" stroke="#10a9cf"></path><path d="M0 0L0 96L74.7 95Z" fill="#2589b1" stroke="#2589b1"></path><path d="M74.7 95L0 96L0 208Z" fill="#1d99c0" stroke="#1d99c0"></path><path d="M960 243L960 145L863.3 119Z" fill="#1d99c0" stroke="#1d99c0"></path><path d="M826.3 540L960 540L857.3 435Z" fill="#199ec5" stroke="#199ec5"></path><path d="M960 145L960 84L863.3 119Z" fill="#00b4d8" stroke="#00b4d8"></path><path d="M141.7 0L0 0L74.7 95Z" fill="#297ea6" stroke="#297ea6"></path><path d="M960 84L960 0L863.3 119Z" fill="#00b4d8" stroke="#00b4d8"></path></g></svg>