<svg width="1512" height="491" viewBox="0 0 1512 491" fill="none" xmlns="http://www.w3.org/2000/svg">
<g clip-path="url(#clip0_59_4)">
<path d="M1512 0H0V982H1512V0Z" fill="white"/>
<path d="M-364.713 -44.2452C-364.713 -44.2452 -197.926 -132.376 -1.24278e-06 -44.2452C197.926 43.8854 166.771 -135.973 364.713 -44.2452C562.654 47.4826 526.919 -93.3465 729.425 -44.2452C931.931 4.85615 896.196 -93.3465 1094.12 -44.2452C1292.05 4.85615 1260.91 -96.4041 1458.83 -44.2452C1656.76 7.91374 1625.62 -130.577 1823.55 -44.2452C2021.47 42.0868 1831.54 -101.8 2188.26 -44.2452H2359.61V1341.72H-364.713V-44.2452Z" fill="#1BA4FF"/>
<path d="M-364.713 53.9575C-364.713 53.9575 -197.926 4.85618 -1.24278e-06 53.9575C197.926 103.059 166.771 4.85618 364.713 53.9575C562.654 103.059 396.07 -12.5901 729.425 53.9575C1062.78 120.505 835.538 -1.79859 1094.12 53.9575C1352.71 109.714 1260.91 4.85618 1458.83 53.9575C1656.76 103.059 1596.12 -7.19434 1823.55 53.9575C2050.98 115.109 1990.32 4.85618 2188.26 53.9575H2359.61V1341.72H-364.713V53.9575Z" fill="#1C97F2"/>
<path d="M-364.713 152.16C-364.713 152.16 -197.926 98.2026 -1.24278e-06 152.16C197.926 206.118 166.771 82.0154 364.713 152.16C562.654 222.305 372.704 103.059 729.425 152.16C1086.15 201.262 812.172 103.059 1094.12 152.16C1376.07 201.262 1260.91 103.059 1458.83 152.16C1656.76 201.262 1554.06 74.8211 1823.55 152.16C2093.04 229.499 1812.85 103.059 2188.26 152.16H2359.61V1341.72H-364.713V152.16Z" fill="#1D8AE5"/>
<path d="M-364.713 250.363C-364.713 250.363 -197.926 201.262 -1.24278e-06 250.363C197.926 299.464 37.5882 201.262 364.713 250.363C691.837 299.464 531.484 201.262 729.425 250.363C927.366 299.464 896.196 201.262 1094.12 250.363C1292.05 299.464 1253.21 201.262 1458.83 250.363C1664.46 299.464 1540.04 171.225 1823.55 250.363C2107.05 329.501 1990.32 169.427 2188.26 250.363H2359.61V1341.72H-364.713V250.363Z" fill="#1E7DD8"/>
<path d="M-364.713 348.566C-364.713 348.566 -330.24 299.464 -1.24278e-06 348.566C330.24 397.667 166.771 299.464 364.713 348.566C562.654 397.667 531.484 299.464 729.425 348.566C927.366 397.667 896.196 291.011 1094.12 348.566C1292.05 406.12 1180 299.464 1458.83 348.566C1737.67 397.667 1611.7 299.464 1823.55 348.566C2035.4 397.667 1985.75 269.428 2188.26 348.566H2359.61V1341.72H-364.713V348.566Z" fill="#1F70CB"/>
<path d="M-364.713 446.75C-364.713 446.75 -197.926 397.649 -1.24278e-06 446.75C197.926 495.852 166.771 358.62 364.713 446.75C562.654 534.881 531.484 397.649 729.425 446.75C927.366 495.852 896.196 380.203 1094.12 446.75C1292.05 513.298 1123.92 380.203 1458.83 446.75C1793.75 513.298 1578.98 397.649 1823.55 446.75C2068.11 495.852 1856.46 362.217 2188.26 446.75H2359.61V1341.72H-364.713V446.75Z" fill="#2063BE"/>
<path d="M-364.713 544.953C-364.713 544.953 -306.874 478.405 -1.24278e-06 544.953C306.874 611.501 166.771 495.852 364.713 544.953C562.654 594.054 531.484 487.398 729.425 544.953C927.366 602.508 843.327 495.852 1094.12 544.953C1344.92 594.054 1260.91 495.852 1458.83 544.953C1656.76 594.054 1625.62 495.852 1823.55 544.953C2021.47 594.054 1990.32 453.225 2188.26 544.953H2359.61V1341.72H-364.713V544.953Z" fill="#2156B1"/>
</g>
<defs>
<clipPath id="clip0_59_4">
<rect width="1512" height="982" fill="white"/>
</clipPath>
</defs>
</svg>
